<?xml version="1.0"?>
<svg xmlns="http://www.w3.org/2000/svg" id="Fill_out_line" data-name="Fill out line" viewBox="0 0 512 512" width="512" height="512"><path d="M496,440v56H16V384a31.9946,31.9946,0,0,1,28.03-31.75A30.67847,30.67847,0,0,1,48,352a31.87559,31.87559,0,0,1,12.3,2.45A56.02981,56.02981,0,0,1,162.61,352H240a40.00094,40.00094,0,0,1,68.98,8.75A39.69717,39.69717,0,0,1,312,376v.49a65.95125,65.95125,0,0,1,8-.49,63.99511,63.99511,0,0,1,64,64Z" style="fill:#8acce7"/><path d="M80,392h0a73.26654,73.26654,0,0,0,61.63024-33.64711l1.426-2.21818A842.41254,842.41254,0,0,1,255.99994,216.00006L256,216l40,40-24.00006,24.00006a79.19588,79.19588,0,0,0,0,111.99988L272,392Z" style="fill:#8acce7"/><path d="M392,192v38.05891A81.941,81.941,0,0,1,368,288l0,0-32-32V224Z" style="fill:#e44042"/><path d="M320,120H281.94109A81.94105,81.94105,0,0,0,224,144l0,0,32,32h32Z" style="fill:#e44042"/><path d="M488,24V51.02A147.28989,147.28989,0,0,1,480.96,96c-1.23,3.83984-2.62988,7.62988-4.16992,11.35986a147.25373,147.25373,0,0,1-31.91,47.76026A316.77617,316.77617,0,0,1,321.05005,231.6499L320,232l-24,24-40-40,24-24,.35-1.05A316.92564,316.92564,0,0,1,356.88,67.12012,147.22212,147.22212,0,0,1,460.98,24Z" style="fill:#eedc9a"/><rect x="271.02944" y="195.71573" width="33.94113" height="56.56854" transform="translate(-74.03867 269.25483) rotate(-45)" style="fill:#eebe33"/><path d="M488,24V51.02A147.28989,147.28989,0,0,1,480.96,96,60.78414,60.78414,0,0,1,438.2,78.2l-4.3999-4.3999A60.78414,60.78414,0,0,1,416,31.04,147.28869,147.28869,0,0,1,460.98,24Z" style="fill:#e44042"/><circle cx="376" cy="136" r="40" style="fill:#8acce7"/><path d="M376,88a48,48,0,1,0,48,48A48.05405,48.05405,0,0,0,376,88Zm0,80a32,32,0,1,1,32-32A32.03635,32.03635,0,0,1,376,168Z"/><path d="M255.0293,263.02979l9.373-9.37256-11.3125-11.31446-9.374,9.37305a118.61028,118.61028,0,0,0-23.24609,32.83789l14.43945,6.89258A102.64589,102.64589,0,0,1,255.0293,263.02979Z"/><path d="M210.08594,318.85938l15.83594,2.28124a103.87756,103.87756,0,0,1,3.26855-14.85156l-15.33008-4.57812A119.78331,119.78331,0,0,0,210.08594,318.85938Z"/><path d="M488,16H460.97559a154.18978,154.18978,0,0,0-109.749,45.46,324.55727,324.55727,0,0,0-41.218,50.54H281.94141a89.354,89.354,0,0,0-63.59864,26.34326,8,8,0,0,0,0,11.31348l32,32A8.00076,8.00076,0,0,0,256,184h18.27466c-.428,1.22375-.85278,2.44849-1.26587,3.67725l-22.666,22.666A852.20736,852.20736,0,0,0,153.0105,326.873a63.96078,63.96078,0,0,0-96.87915,17.95892A40.029,40.029,0,0,0,18.002,357.54L29.99805,368.127A24.02461,24.02461,0,0,1,48,360c.67285,0,1.34033.03345,2.00366.08783A63.902,63.902,0,0,0,48,376H64a47.98264,47.98264,0,0,1,79.94458-35.80518q-3.85107,5.77937-7.61646,11.61231l-1.42773,2.21973A64.99861,64.99861,0,0,1,80,384v16a80.93118,80.93118,0,0,0,68.3584-37.31934l1.42773-2.21972a836.00637,836.00637,0,0,1,106.252-133.10889L284.686,256l-18.34327,18.34326a87.19816,87.19816,0,0,0,0,123.31348l11.31446-11.31348a70.65615,70.65615,0,0,1-19.94092-38.98089,32.00086,32.00086,0,0,1,45.69873,22.5672,71.53094,71.53094,0,0,0-10.417,3.30725l6.0039,14.83105A56.0372,56.0372,0,0,1,376,440h16a72.08124,72.08124,0,0,0-72-72c-.22632,0-.45044.01392-.67651.016a48.01783,48.01783,0,0,0-62.28077-37.63452,70.64966,70.64966,0,0,1,20.61451-44.72473l46.665-46.66553c1.229-.413,2.45385-.83807,3.67773-1.26605V256a8.00035,8.00035,0,0,0,2.34277,5.65674l32,32a8.00063,8.00063,0,0,0,11.31446,0A89.35245,89.35245,0,0,0,400,230.05908v-28.068A324.622,324.622,0,0,0,450.541,160.773,154.19511,154.19511,0,0,0,496,51.02441V24A8.00008,8.00008,0,0,0,488,16Zm-8,16V51.02441a139.94085,139.94085,0,0,1-4.84839,36.62427A52.36745,52.36745,0,0,1,443.85547,72.5415L439.459,68.145a52.37047,52.37047,0,0,1-15.10766-31.29694A139.94883,139.94883,0,0,1,460.97559,32ZM259.31348,168l-23.69922-23.69971A73.38662,73.38662,0,0,1,281.94141,128H300.082a326.22173,326.22173,0,0,0-19.72436,40Zm8.00048,48L280,203.314,308.686,232,296,244.686ZM384,230.05908a73.3829,73.3829,0,0,1-16.30078,46.32666L344,252.68652V231.64233a326.21877,326.21877,0,0,0,40-19.72467ZM439.22656,149.46a310.45918,310.45918,0,0,1-117.08764,73.36493l-32.96338-32.96332A310.45027,310.45027,0,0,1,362.541,72.773a138.92048,138.92048,0,0,1,46.3789-30.74469A68.262,68.262,0,0,0,428.14453,79.4585L432.541,83.855a68.262,68.262,0,0,0,37.43017,19.225A138.93922,138.93922,0,0,1,439.22656,149.46Z"/><path d="M72.189,434.81628A47.98772,47.98772,0,0,0,27.19141,441.603l9.60937,12.793A32.00342,32.00342,0,0,1,88,480h16a47.923,47.923,0,0,0-17.8479-37.31079,40.01684,40.01684,0,0,1,53.842-13.343l8.01172-13.84961a56.03961,56.03961,0,0,0-75.8169,19.3197Z"/><path d="M224,400a55.90218,55.90218,0,0,0-37.335,14.26123L197.335,426.18311a40.01653,40.01653,0,0,1,64.39063,43.15136l15.08593,5.33106A56.03338,56.03338,0,0,0,224,400Z"/></svg>
